<svg width="32" height="32" viewBox="0 0 32 32" fill="none" xmlns="http://www.w3.org/2000/svg">
<g id="eyeglasses_FILL0_wght400_GRAD0_opsz24 1">
<path id="Vector" d="M9.13337 20C9.82226 20 10.4389 19.8 10.9834 19.4C11.5278 19 11.9112 18.4778 12.1334 17.8333L12.6334 16.3C12.9889 15.2333 12.9 14.25 12.3667 13.35C11.8334 12.45 11.0667 12 10.0667 12H5.36671L6.00004 17.2333C6.11115 18.0111 6.46115 18.6666 7.05004 19.2C7.63893 19.7333 8.33337 20 9.13337 20ZM22.8667 20C23.6667 20 24.3612 19.7333 24.95 19.2C25.5389 18.6666 25.8889 18.0111 26 17.2333L26.6334 12H21.9667C20.9667 12 20.2 12.4555 19.6667 13.3666C19.1334 14.2778 19.0445 15.2666 19.4 16.3333L19.8667 17.8333C20.0889 18.4778 20.4723 19 21.0167 19.4C21.5612 19.8 22.1778 20 22.8667 20ZM9.13337 22.6666C7.66671 22.6666 6.38337 22.1833 5.28337 21.2166C4.18337 20.25 3.54449 19.0333 3.36671 17.5666L2.66671 12H1.33337V9.33331H10.0667C11.0445 9.33331 11.9389 9.5722 12.75 10.05C13.5612 10.5278 14.2 11.1778 14.6667 12H17.3667C17.8334 11.1778 18.4723 10.5278 19.2834 10.05C20.0945 9.5722 20.9889 9.33331 21.9667 9.33331H30.6667V12H29.3334L28.6334 17.5666C28.4556 19.0333 27.8167 20.25 26.7167 21.2166C25.6167 22.1833 24.3334 22.6666 22.8667 22.6666C21.6 22.6666 20.4612 22.3055 19.45 21.5833C18.4389 20.8611 17.7334 19.9 17.3334 18.7L16.8334 17.2C16.7889 17.0444 16.7445 16.8833 16.7 16.7166C16.6556 16.55 16.6112 16.3111 16.5667 16H15.4334C15.3889 16.2666 15.3445 16.4833 15.3 16.65C15.2556 16.8166 15.2112 16.9778 15.1667 17.1333L14.6667 18.6666C14.2667 19.8666 13.5612 20.8333 12.55 21.5666C11.5389 22.3 10.4 22.6666 9.13337 22.6666Z" fill="white"/>
</g>
</svg>
